<svg class="svg-icon" style="width: 1em; height: 1em;vertical-align: middle;fill: currentColor;overflow: hidden;" viewBox="0 0 1024 1024" version="1.1" xmlns="http://www.w3.org/2000/svg"><path d="M512 840s-256-306.608-256-448a256 256 0 0 1 512 0c0 141.392-256 448-256 448z m0-672a224 224 0 0 0-224 224c0 123.712 224 400 224 400s224-276.288 224-400a224 224 0 0 0-224-224z m0 368a144 144 0 1 1 144-144 144 144 0 0 1-144 144z m0-256a112 112 0 1 0 112 112 112 112 0 0 0-112-112z m-113.136 457.456q10.544 14.4 20.448 27.616C351.008 772.944 304 789.184 304 808c0 26.512 93.12 48 208 48s208-21.488 208-48c0-18.816-47.008-35.056-115.312-42.928q9.888-13.152 20.448-27.616c75.488 13.472 126.864 40 126.864 70.544 0 44.176-107.456 80-240 80s-240-35.824-240-80c0-30.544 51.376-57.072 126.864-70.544z" fill="#333333" /></svg>