<svg class="svg-icon" style="width: 1em; height: 1em;vertical-align: middle;fill: currentColor;overflow: hidden;" viewBox="0 0 1024 1024" version="1.1" xmlns="http://www.w3.org/2000/svg"><path d="M950.4 688H73.6c-4 0-8.8-1.6-12-4.8-3.2-3.2-4.8-7.2-4-12C69.6 429.6 269.6 240 512 240s442.4 189.6 454.4 431.2c0 4-1.6 8.8-4 12-3.2 3.2-7.2 4.8-12 4.8zM90.4 656h843.2C913.6 439.2 732 272 512 272c-220 0-401.6 167.2-421.6 384z"  /><path d="M188.8 584.8c-0.8 0-1.6 0-2.4-0.8-4-1.6-6.4-6.4-4.8-10.4C232 436 364.8 343.2 512 343.2c4.8 0 8 3.2 8 8s-3.2 8-8 8c-140.8 0-267.2 88.8-315.2 220-1.6 3.2-4.8 5.6-8 5.6zM512 272c-8.8 0-16-7.2-16-16v-71.2c0-8.8 7.2-16 16-16s16 7.2 16 16V256c0 8.8-7.2 16-16 16zM1004 861.6H20c-8.8 0-16-7.2-16-16v-74.4c0-8.8 7.2-16 16-16h984c8.8 0 16 7.2 16 16v74.4c0 8.8-7.2 16-16 16z m-968-32h952v-42.4H36v42.4z"  /><path d="M572 200.8h-120c-8.8 0-16-7.2-16-16s7.2-16 16-16h119.2c8.8 0 16 7.2 16 16s-6.4 16-15.2 16zM777.6 285.6c-2.4 0-5.6-0.8-8-2.4-8-4-10.4-14.4-5.6-21.6l52-91.2c4-8 14.4-10.4 21.6-5.6 8 4 10.4 14.4 5.6 21.6l-52 91.2c-2.4 4.8-8 8-13.6 8zM858.4 344.8c-4 0-8-1.6-11.2-4.8-6.4-6.4-6.4-16 0-22.4l74.4-76c6.4-6.4 16-6.4 22.4 0 6.4 6.4 6.4 16 0 22.4l-74.4 76c-3.2 3.2-7.2 4.8-11.2 4.8zM246.4 285.6c-5.6 0-11.2-3.2-13.6-8l-52-91.2c-4-8-1.6-17.6 5.6-21.6 8-4 17.6-1.6 21.6 5.6l52 91.2c4 8 1.6 17.6-5.6 21.6-2.4 1.6-4.8 2.4-8 2.4zM165.6 344.8c-4 0-8-1.6-11.2-4.8L79.2 264c-6.4-6.4-6.4-16.8 0-22.4 6.4-6.4 16.8-6.4 22.4 0l74.4 76c6.4 6.4 6.4 16.8 0 22.4-2.4 3.2-6.4 4.8-10.4 4.8zM798.4 767.2c-8.8 0-16-7.2-16-16V672c0-8.8 7.2-16 16-16s16 7.2 16 16v79.2c0 8.8-7.2 16-16 16zM225.6 767.2c-8.8 0-16-7.2-16-16V672c0-8.8 7.2-16 16-16s16 7.2 16 16v79.2c0 8.8-6.4 16-16 16z"  /></svg>